<svg width="30" height="30" viewBox="0 0 30 30" fill="none" xmlns="http://www.w3.org/2000/svg">
<path d="M10.0874 15.6787L20.5368 25.635C20.7112 25.8012 20.9428 25.8939 21.1837 25.8939C21.4246 25.8939 21.6562 25.8012 21.8306 25.635L21.8418 25.6237C21.9266 25.5432 21.9942 25.4462 22.0403 25.3387C22.0865 25.2312 22.1103 25.1154 22.1103 24.9984C22.1103 24.8814 22.0865 24.7657 22.0403 24.6582C21.9942 24.5507 21.9266 24.4537 21.8418 24.3731L12.0018 14.9981L21.8418 5.62687C21.9266 5.54629 21.9942 5.4493 22.0403 5.3418C22.0865 5.23431 22.1103 5.11854 22.1103 5.00155C22.1103 4.88457 22.0865 4.7688 22.0403 4.6613C21.9942 4.5538 21.9266 4.45682 21.8418 4.37624L21.8306 4.36499C21.6562 4.19878 21.4246 4.10606 21.1837 4.10606C20.9428 4.10606 20.7112 4.19878 20.5368 4.36499L10.0874 14.3212C9.99555 14.4088 9.92238 14.5141 9.8724 14.6308C9.82241 14.7475 9.79663 14.8731 9.79663 15C9.79663 15.1269 9.82241 15.2525 9.8724 15.3692C9.92238 15.4859 9.99555 15.5912 10.0874 15.6787Z" fill="#6A7282" style="fill:#6A7282;fill:color(display-p3 0.4157 0.4471 0.5098);fill-opacity:1;"/>
</svg>
